PathFileType	4	(X/Y/Z)	/Users/niels/Desktop/University/Third Semester/Perception and Action/Exam/Gymnastics Motion Tracking/Code for Gym Tracking/Analyzed Data/Webcam_Backflip/id15_1_baseline_Sports2D/id15_1_baseline_Sports2D_px_person00.trc
DataRate	CameraRate	NumFrames	NumMarkers	Units	OrigDataRate	OrigDataStartFrame	OrigNumFrames
29.708737864077673	29.708737864077673	11	22	m	29.708737864077673	25	103
Frame#	Time	Hip			RHip			RKnee			RAnkle			RBigToe			RSmallToe			RHeel			LHip			LKnee			LAnkle			LBigToe			LSmallToe			LHeel			Neck			Head			Nose			RShoulder			RElbow			RWrist			LShoulder			LElbow			LWrist		
		X1	Y1	Z1	X2	Y2	Z2	X3	Y3	Z3	X4	Y4	Z4	X5	Y5	Z5	X6	Y6	Z6	X7	Y7	Z7	X8	Y8	Z8	X9	Y9	Z9	X10	Y10	Z10	X11	Y11	Z11	X12	Y12	Z12	X13	Y13	Z13	X14	Y14	Z14	X15	Y15	Z15	X16	Y16	Z16	X17	Y17	Z17	X18	Y18	Z18	X19	Y19	Z19	X20	Y20	Z20	X21	Y21	Z21	X22	Y22	Z22
25	0.8415032679738562	0.9532595572704019	-0.5178244950642782	0.0	0.8867066977825977	-0.5262657085479172	0.0	0.7984576440668438	-0.7122537948068667	0.0	0.7465697115683928	-0.9414808968077542	0.0	0.6977939188485799	-1.0068840807077537	0.0	0.6711069101143937	-0.9923415669409564	0.0	0.7563903793519051	-0.9607646782886526	0.0	1.0199847118736312	-0.5275365745224632	0.0	1.1054792314197652	-0.7114871076555261	0.0	1.136286462947271	-0.9418811630828435	0.0	1.1908270964427634	-1.0009053484836812	0.0	1.208810632188282	-0.9888278041419338	0.0	1.1237545879098436	-0.9661218751030124	0.0	0.9586237855567257	-0.27935448267406204	0.0	0.9512284077880395	-0.1323533557886199	0.0	0.9573924927900601	-0.24381378291140463	0.0	0.8323460752616262	-0.27681005871598574	0.0	0.6832467117593389	-0.26390842389904157	0.0	0.547145439678426	-0.17886938562316437	0.0	1.0808310799828347	-0.28405122965129215	0.0	1.2212229993346546	-0.2937137193594748	0.0	1.36419433334696	-0.2538256196598529	0.0
26	0.8751633986928105	0.9587993444895082	-0.5333691942036123	0.0	0.894324250675531	-0.5432295620989112	0.0	0.8035185360350067	-0.7205152565370972	0.0	0.746924513596265	-0.94722435642981	0.0	0.6988901575418303	-1.008591079949008	0.0	0.6726703809744308	-0.9942505231086503	0.0	0.7550559508229816	-0.9674870264886141	0.0	1.0249257502366933	-0.5428105367889307	0.0	1.1102294660719245	-0.7164856760688196	0.0	1.1336436164659778	-0.9452888652253107	0.0	1.188202096761911	-1.001143683853484	0.0	1.2056397492195108	-0.9897351118285919	0.0	1.1220404989326012	-0.9701777279212768	0.0	0.9620387665227836	-0.2930044367455138	0.0	0.9517692511791532	-0.14182214871437093	0.0	0.9591007279714042	-0.24884495648049584	0.0	0.8390296662608605	-0.2920470520940384	0.0	0.6983591221187979	-0.2707324845448066	0.0	0.5777970213352268	-0.16597052142331256	0.0	1.082188415276845	-0.2965019318608653	0.0	1.2270380066957929	-0.2951136923685105	0.0	1.3727404111981265	-0.24504789498807236	0.0
27	0.9088235294117647	0.9658083280877584	-0.5423464465124865	0.0	0.9033059309573563	-0.553037235461735	0.0	0.8112359807817513	-0.7231408618801565	0.0	0.7470194925688746	-0.949094961288293	0.0	0.6991579170991159	-1.0083426698826956	0.0	0.6740363753161	-0.9938130650965528	0.0	0.7538227882026459	-0.9709414559305001	0.0	1.030940011028479	-0.5510555363755602	0.0	1.113376856962825	-0.7151635175839748	0.0	1.1323105099345243	-0.9452823114547941	0.0	1.1848492185093809	-1.0005798321406383	0.0	1.2030569125415345	-0.9894423387936635	0.0	1.1209615780193756	-0.9705832037670827	0.0	0.9654121945919416	-0.2990279210096448	0.0	0.9528140019532297	-0.14739158723569679	0.0	0.9600782777070839	-0.24930027015892411	0.0	0.8488533846724502	-0.3016547192609482	0.0	0.7215129808492228	-0.28221872400074255	0.0	0.6223366788359009	-0.16756607733247766	0.0	1.0815187775899415	-0.30324679085967904	0.0	1.2266758647090354	-0.2948347251587003	0.0	1.370065910944959	-0.23949815951083775	0.0
28	0.9424836601307189	0.9742197395682215	-0.5441700802519757	0.0	0.9134392224806134	-0.5551850633940383	0.0	0.8211149092069108	-0.7214578557519351	0.0	0.7476467829461438	-0.9468423788224047	0.0	0.6995258326387916	-1.0056551567668834	0.0	0.6759240599115622	-0.9907480925477251	0.0	0.7534591321022122	-0.9704518693357379	0.0	1.037733024632616	-0.5519905155527496	0.0	1.1153011645689297	-0.7090655140003227	0.0	1.134496387679879	-0.9416531234250325	0.0	1.1826077153490928	-0.9992092231655424	0.0	1.2027941988522595	-0.9880214523713922	0.0	1.1232102133304445	-0.9668806952416054	0.0	0.9687310730291675	-0.29701134851561434	0.0	0.9547814649691357	-0.14825377733850936	0.0	0.960495640459674	-0.2449191272212386	0.0	0.8612238022785601	-0.30434504865591067	0.0	0.7515387595366464	-0.2971173359577704	0.0	0.6784738138134667	-0.18531290888774093	0.0	1.0790463228140272	-0.30310762304231653	0.0	1.2197917374427827	-0.292555484473209	0.0	1.3558656470550943	-0.2368783164822126	0.0
29	0.9761437908496732	0.9834651634727373	-0.5400615088694737	0.0	0.9241898782119848	-0.5510543525680739	0.0	0.8322971987604614	-0.7170901532303589	0.0	0.7501645330770114	-0.9407858142652971	0.0	0.7009654484871356	-1.0002125438617377	0.0	0.6791654593383272	-0.9849327995156654	0.0	0.7553175634621233	-0.966002012714889	0.0	1.0446905032584517	-0.5470816297147169	0.0	1.1163125366794777	-0.7007434361152757	0.0	1.1418548034819664	-0.9350562852802606	0.0	1.1833605016248399	-0.9970293641270502	0.0	1.206450626945599	-0.9856208712155843	0.0	1.1312323542522922	-0.9597186537845299	0.0	0.972223242496408	-0.2886938507793761	0.0	0.9579418588211233	-0.1449926857397909	0.0	0.9608331851036436	-0.2368477177479754	0.0	0.8749417080987513	-0.30086364132231436	0.0	0.785884849232369	-0.3140795705014668	0.0	0.7425159706032741	-0.21851218821355078	0.0	1.0756538279399335	-0.29700242682259925	0.0	1.2072000169015353	-0.2889004859166699	0.0	1.3313912826291667	-0.23596780683947652	0.0
30	1.0098039215686274	0.9926528165041991	-0.5326198299763002	0.0	0.934884411574554	-0.5434699470900974	0.0	0.8435982872770605	-0.7118123553384409	0.0	0.7559754448202971	-0.9321011340358862	0.0	0.704163319849898	-0.9924210373118336	0.0	0.6845167205609771	-0.9769057175698501	0.0	0.7610072894867177	-0.9585845550551118	0.0	1.0510529237452035	-0.5389701730690514	0.0	1.1170685963115565	-0.6930509560843368	0.0	1.1553277374678566	-0.9270456876139398	0.0	1.1894657565213942	-0.9939703927376915	0.0	1.2156828024075688	-0.9822954516481864	0.0	1.146506959028664	-0.9507822053183741	0.0	0.9762432785065616	-0.2774216247571342	0.0	0.9623659481066447	-0.13939131713168382	0.0	0.961784510651093	-0.2272968238180998	0.0	0.8884013848043687	-0.29364816328590526	0.0	0.8207118935826722	-0.331894143314476	0.0	0.8093792591835018	-0.26342045671232034	0.0	1.0726148722665068	-0.2876125402284047	0.0	1.1908019973616744	-0.28525377856405976	0.0	1.2991073955231858	-0.23510356039055205	0.0
31	1.0434640522875815	1.000937407102717	-0.5251725859916768	0.0	0.944873817394278	-0.5359433548540978	0.0	0.8536280767623943	-0.7076917199274338	0.0	0.7658635697515119	-0.9229536615658602	0.0	0.709521740203701	-0.9837132768573011	0.0	0.6925508407397766	-0.9681883792783138	0.0	0.7716091198854607	-0.9502527629719155	0.0	1.0563240552947801	-0.5309800872425422	0.0	1.1187646051556108	-0.688591299825321	0.0	1.1749415190753807	-0.9199282602000459	0.0	1.20319533526028	-0.990190324956521	0.0	1.2317577978688512	-0.9782793950978166	0.0	1.1690448370830213	-0.9425475529348845	0.0	0.9810476562706931	-0.2669630433310737	0.0	0.9680041769960184	-0.1337863804186033	0.0	0.9639612451050569	-0.2188310692643359	0.0	0.9001394956531142	-0.2860479632239239	0.0	0.8516757028572854	-0.34999065611586394	0.0	0.8727424104471958	-0.3140167826425238	0.0	1.0710743248557386	-0.2784838445647342	0.0	1.1731290695596137	-0.2832332524774127	0.0	1.2623631546564233	-0.232912812111624	0.0
32	1.077124183006536	1.0078821602238217	-0.5210009547851338	0.0	0.9537206565521763	-0.53179477618437	0.0	0.8612075771148312	-0.7067584741265364	0.0	0.7795465209702739	-0.9156758293922044	0.0	0.7173974743899763	-0.976058887057315	0.0	0.7035688978606112	-0.960720184358417	0.0	0.7868580766719264	-0.9431372333311259	0.0	1.060609050692099	-0.5264654694564604	0.0	1.1227261233638717	-0.6892275087602654	0.0	1.1997029370732948	-0.9160638087397356	0.0	1.2250945461490512	-0.9866013512144551	0.0	1.2545332802817852	-0.9744939097808488	0.0	1.1974876797617275	-0.9374726350358435	0.0	0.9866415427502183	-0.2604181891366356	0.0	0.9746274561417763	-0.13044143911106212	0.0	0.9676788661402136	-0.21372233828635473	0.0	0.9093620759981785	-0.2814700670164331	0.0	0.8752541707367132	-0.3684917474791592	0.0	0.9258663058536598	-0.3637754441708836	0.0	1.0716981132879135	-0.2729756680374058	0.0	1.1563232281786147	-0.28395720408802927	0.0	1.2246802034236268	-0.22902426952278093	0.0
33	1.1107843137254902	1.0136099694321252	-0.5226377884736914	0.0	0.9613425249489532	-0.5334768466577924	0.0	0.865959643481485	-0.7104018322971626	0.0	0.7956979683046622	-0.9117257746233725	0.0	0.7280463059746113	-0.9708554763250109	0.0	0.7174191928661326	-0.9557548565420391	0.0	0.8049763176144337	-0.9384721358645033	0.0	1.0645186684999415	-0.5280103221407219	0.0	1.1296883544957943	-0.6957529407336497	0.0	1.2275978691277918	-0.9169151939921691	0.0	1.2528025956840807	-0.9848734690444129	0.0	1.281735668166985	-0.9726127932621731	0.0	1.229491921261353	-0.9370399115790906	0.0	0.9927542941211621	-0.25981553901466237	0.0	0.9817151423241752	-0.13119053562734895	0.0	0.9728356874205485	-0.21358759747809083	0.0	0.9161168495320078	-0.28266389649810203	0.0	0.89006958108942	-0.38761501732030357	0.0	0.9631075188546433	-0.40767148558590105	0.0	1.0744980440860785	-0.2736656204443207	0.0	1.1411261804212398	-0.287550068798628	0.0	1.1887784728933584	-0.2245052270928267	0.0
34	1.1444444444444444	1.0185857556935067	-0.5313224159753678	0.0	0.967924640432334	-0.5421930527723248	0.0	0.8684766109132124	-0.7189630241789863	0.0	0.812310397252865	-0.9114617484505566	0.0	0.7409765220021354	-0.9683570282662232	0.0	0.7331211287880403	-0.9534704638439617	0.0	0.8233196597456242	-0.9366838960217029	0.0	1.0686746728923597	-0.5368252865062404	0.0	1.139308385027835	-0.7076866940566122	0.0	1.255826426365586	-0.9224843239002943	0.0	1.2817156114736574	-0.986358893176146	0.0	1.3094677026530495	-0.9740924793212629	0.0	1.2620641789087428	-0.9413071234582012	0.0	0.9988618229197447	-0.26611467243376336	0.0	0.9884844823998333	-0.13724908248609594	0.0	0.9787232381434071	-0.219283601082782	0.0	0.9210889981459042	-0.2911476766289854	0.0	0.8972726568713045	-0.4071326913015652	0.0	0.9816702241964447	-0.4433945293369612	0.0	1.0787709205895617	-0.28209989299464755	0.0	1.1267671467714888	-0.2934875540325107	0.0	1.1561640854731665	-0.22160924406972762	0.0
35	1.1781045751633987	1.0232042326496527	-0.5466830285055739	0.0	0.9737211909112142	-0.5576884070603154	0.0	0.869753485788638	-0.7316044950193947	0.0	0.827243176511787	-0.9146018364275633	0.0	0.7545190861401277	-0.9680363024215978	0.0	0.7487559445674028	-0.953464395472602	0.0	0.8393594167249023	-0.9379461456321102	0.0	1.0732398950726352	-0.552470873904692	0.0	1.1501756468573452	-0.7232593324824996	0.0	1.281378856361697	-0.931411802745547	0.0	1.3070969064048712	-0.990851394944558	0.0	1.3338007406503352	-0.9788798354947718	0.0	1.2919413048592852	-0.9490551011567249	0.0	1.0042788653034818	-0.27914677058165	0.0	0.9940115478971835	-0.149119481445177	0.0	0.9840601863764434	-0.23089514230665958	0.0	0.9253140349022003	-0.30696507893656544	0.0	0.8999678973837979	-0.42630794687836077	0.0	0.9827554917059864	-0.47104251084257515	0.0	1.0832644874232042	-0.2982808604725159	0.0	1.1118306307310157	-0.30166157920578285	0.0	1.1274469622289707	-0.22309140201126634	0.0
